<svg width="120" height="30" viewBox="0 0 120 30" fill="none" xmlns="http://www.w3.org/2000/svg">
<path d="M39.6367 15.2461H44.9688V22.4141C44.2201 22.6615 43.4453 22.8535 42.6445 22.9902C41.8438 23.127 40.9453 23.1953 39.9492 23.1953C38.4974 23.1953 37.2669 22.9089 36.2578 22.3359C35.2552 21.7565 34.4935 20.9199 33.9727 19.8262C33.4518 18.7259 33.1914 17.401 33.1914 15.8516C33.1914 14.3607 33.4811 13.0684 34.0605 11.9746C34.64 10.8743 35.4831 10.0247 36.5898 9.42578C37.6966 8.82031 39.0378 8.51758 40.6133 8.51758C41.388 8.51758 42.1367 8.5957 42.8594 8.75195C43.5885 8.90169 44.2559 9.11003 44.8613 9.37695L44.041 11.3105C43.5592 11.0827 43.0189 10.8906 42.4199 10.7344C41.821 10.5781 41.1992 10.5 40.5547 10.5C39.5326 10.5 38.6504 10.7214 37.9082 11.1641C37.1725 11.6068 36.6061 12.2318 36.209 13.0391C35.8118 13.8398 35.6133 14.7871 35.6133 15.8809C35.6133 16.9421 35.7728 17.873 36.0918 18.6738C36.4108 19.4746 36.9089 20.0996 37.5859 20.5488C38.2695 20.9915 39.1517 21.2129 40.2324 21.2129C40.7728 21.2129 41.2318 21.1836 41.6094 21.125C41.987 21.0664 42.3353 21.0013 42.6543 20.9297V17.248H39.6367V15.2461ZM48.3867 23V8.72266H50.7305V23H48.3867ZM62.7422 19.1133C62.7422 19.9596 62.5339 20.6888 62.1172 21.3008C61.707 21.9128 61.1146 22.3815 60.3398 22.707C59.5716 23.0326 58.6536 23.1953 57.5859 23.1953C57.0651 23.1953 56.5671 23.166 56.0918 23.1074C55.6165 23.0488 55.1673 22.9642 54.7441 22.8535C54.3275 22.7363 53.9466 22.5964 53.6016 22.4336V20.2266C54.181 20.4805 54.8288 20.7116 55.5449 20.9199C56.2611 21.1217 56.9902 21.2227 57.7324 21.2227C58.3379 21.2227 58.8392 21.1445 59.2363 20.9883C59.64 20.8255 59.9395 20.5977 60.1348 20.3047C60.3301 20.0052 60.4277 19.6569 60.4277 19.2598C60.4277 18.8366 60.3138 18.4785 60.0859 18.1855C59.8581 17.8926 59.513 17.6257 59.0508 17.3848C58.5951 17.1374 58.0221 16.8737 57.332 16.5938C56.8633 16.4049 56.4141 16.1901 55.9844 15.9492C55.5612 15.7083 55.1836 15.4251 54.8516 15.0996C54.5195 14.7741 54.2559 14.39 54.0605 13.9473C53.8717 13.498 53.7773 12.9707 53.7773 12.3652C53.7773 11.5579 53.9694 10.8678 54.3535 10.2949C54.7441 9.72201 55.291 9.28255 55.9941 8.97656C56.7038 8.67057 57.5306 8.51758 58.4746 8.51758C59.2233 8.51758 59.9264 8.5957 60.584 8.75195C61.248 8.9082 61.8991 9.12956 62.5371 9.41602L61.7949 11.3008C61.209 11.0599 60.6393 10.8678 60.0859 10.7246C59.5391 10.5814 58.9792 10.5098 58.4062 10.5098C57.9115 10.5098 57.4915 10.5846 57.1465 10.7344C56.8014 10.8841 56.5378 11.0957 56.3555 11.3691C56.1797 11.6361 56.0918 11.9551 56.0918 12.3262C56.0918 12.7428 56.1927 13.0944 56.3945 13.3809C56.6029 13.6608 56.9219 13.918 57.3516 14.1523C57.7878 14.3867 58.3477 14.6471 59.0312 14.9336C59.819 15.2591 60.4863 15.6009 61.0332 15.959C61.5866 16.3171 62.0098 16.7467 62.3027 17.248C62.5957 17.7428 62.7422 18.3646 62.7422 19.1133ZM79.5391 23L78.1426 19.0352H72.6836L71.2871 23H68.8164L74.1289 8.66406H76.7266L82.0293 23H79.5391ZM77.5371 17.0234L76.1797 13.1172C76.1276 12.9479 76.0527 12.7103 75.9551 12.4043C75.8574 12.0918 75.7598 11.776 75.6621 11.457C75.5645 11.1315 75.4831 10.8581 75.418 10.6367C75.3529 10.9036 75.2715 11.2031 75.1738 11.5352C75.0827 11.8607 74.9915 12.1667 74.9004 12.4531C74.8158 12.7396 74.7507 12.9609 74.7051 13.1172L73.3379 17.0234H77.5371ZM87.7031 21.3398C88.0026 21.3398 88.2988 21.3138 88.5918 21.2617C88.8848 21.2031 89.1517 21.1348 89.3926 21.0566V22.7949C89.1387 22.9056 88.8099 23 88.4062 23.0781C88.0026 23.1562 87.5827 23.1953 87.1465 23.1953C86.5345 23.1953 85.9844 23.0944 85.4961 22.8926C85.0078 22.6842 84.6204 22.3294 84.334 21.8281C84.0475 21.3268 83.9043 20.6335 83.9043 19.748V13.9375H82.4297V12.9121L84.0117 12.1016L84.7637 9.78711H86.209V12.1895H89.3047V13.9375H86.209V19.7188C86.209 20.2656 86.3457 20.6725 86.6191 20.9395C86.8926 21.2064 87.2539 21.3398 87.7031 21.3398ZM93.8945 23H91.5898V7.80469H93.8945V23ZM101.414 11.9844C102.781 11.9844 103.813 12.2871 104.51 12.8926C105.213 13.498 105.564 14.4421 105.564 15.7246V23H103.934L103.494 21.4668H103.416C103.11 21.8574 102.794 22.1797 102.469 22.4336C102.143 22.6875 101.766 22.8763 101.336 23C100.913 23.1302 100.395 23.1953 99.7832 23.1953C99.1387 23.1953 98.5625 23.0781 98.0547 22.8438C97.5469 22.6029 97.1465 22.2383 96.8535 21.75C96.5605 21.2617 96.4141 20.6432 96.4141 19.8945C96.4141 18.7812 96.8275 17.9447 97.6543 17.3848C98.4876 16.8249 99.7441 16.5156 101.424 16.457L103.299 16.3887V15.8223C103.299 15.0736 103.123 14.5397 102.771 14.2207C102.426 13.9017 101.938 13.7422 101.307 13.7422C100.766 13.7422 100.242 13.8203 99.7344 13.9766C99.2266 14.1328 98.7318 14.3249 98.25 14.5527L97.5078 12.9316C98.0352 12.6517 98.6341 12.4238 99.3047 12.248C99.9818 12.0723 100.685 11.9844 101.414 11.9844ZM103.289 17.834L101.893 17.8828C100.747 17.9219 99.9427 18.1172 99.4805 18.4688C99.0182 18.8203 98.7871 19.3021 98.7871 19.9141C98.7871 20.4479 98.9466 20.8385 99.2656 21.0859C99.5846 21.3268 100.005 21.4473 100.525 21.4473C101.32 21.4473 101.977 21.2227 102.498 20.7734C103.025 20.3177 103.289 19.6504 103.289 18.7715V17.834ZM116.043 19.9141C116.043 20.6237 115.87 21.2227 115.525 21.7109C115.18 22.1992 114.676 22.5703 114.012 22.8242C113.354 23.0716 112.547 23.1953 111.59 23.1953C110.835 23.1953 110.184 23.14 109.637 23.0293C109.096 22.9251 108.585 22.7624 108.104 22.541V20.5586C108.618 20.7995 109.194 21.0078 109.832 21.1836C110.477 21.3594 111.085 21.4473 111.658 21.4473C112.413 21.4473 112.957 21.3301 113.289 21.0957C113.621 20.8548 113.787 20.5358 113.787 20.1387C113.787 19.9043 113.719 19.696 113.582 19.5137C113.452 19.3249 113.204 19.1328 112.84 18.9375C112.482 18.7357 111.954 18.4948 111.258 18.2148C110.574 17.9414 109.998 17.668 109.529 17.3945C109.061 17.1211 108.706 16.7923 108.465 16.4082C108.224 16.0176 108.104 15.5195 108.104 14.9141C108.104 13.957 108.481 13.2311 109.236 12.7363C109.998 12.235 111.004 11.9844 112.254 11.9844C112.918 11.9844 113.543 12.0527 114.129 12.1895C114.721 12.3197 115.301 12.5117 115.867 12.7656L115.145 14.4941C114.656 14.2793 114.165 14.1035 113.67 13.9668C113.182 13.8236 112.684 13.752 112.176 13.752C111.583 13.752 111.131 13.8431 110.818 14.0254C110.512 14.2077 110.359 14.4681 110.359 14.8066C110.359 15.0605 110.434 15.2754 110.584 15.4512C110.734 15.627 110.991 15.8027 111.355 15.9785C111.727 16.1543 112.241 16.3724 112.898 16.6328C113.543 16.8802 114.1 17.1406 114.568 17.4141C115.044 17.681 115.408 18.0098 115.662 18.4004C115.916 18.791 116.043 19.2956 116.043 19.9141Z" fill="#1565C0"/>
<path d="M12 27C18.6274 27 24 21.6274 24 15C24 8.37258 18.6274 3 12 3C5.37258 3 0 8.37258 0 15C0 21.6274 5.37258 27 12 27Z" fill="#4B89EE"/>
<path d="M23.9998 15.0685C23.9998 14.7317 23.9855 14.3985 23.9569 14.0688C23.9489 13.9641 23.9382 13.858 23.9261 13.7532C23.9261 13.7227 23.9261 13.6923 23.9154 13.6604C23.9033 13.5557 23.8899 13.4523 23.8752 13.3489C23.777 12.678 23.621 12.0166 23.4089 11.372C23.3553 11.209 23.299 11.0472 23.2387 10.8881C23.0591 10.4125 22.8487 9.94885 22.6089 9.49997L22.1694 10.3326L21.5879 11.441C20.9487 12.6488 19.8312 13.6405 18.1696 14.4732C16.1141 15.5033 13.6821 16.0973 11.3358 16.6714L10.7582 16.8133C9.77457 17.0469 8.81672 17.3764 7.89876 17.797C5.79501 18.7848 4.64398 20.5959 4.81684 22.6416C4.90194 23.7059 5.35807 24.7079 6.10722 25.4763C6.13402 25.5041 6.1635 25.5306 6.19164 25.5571C8.02849 26.5426 10.0926 27.039 12.1817 26.9976C14.2708 26.9562 16.3131 26.3784 18.1086 25.3209C19.9041 24.2634 21.3911 22.7624 22.4238 20.9652C23.4566 19.1679 23.9996 17.1359 23.9998 15.0685Z" fill="#2D62D6"/>
<path d="M1.24984e-05 15.1414C-0.00290855 17.1903 0.506231 19.2063 1.47958 21L1.8972 20.1906L2.5866 18.8497C3.21767 17.6208 4.3247 16.6118 5.96866 15.7646C8.0024 14.7178 10.4074 14.1134 12.7301 13.528L13.3055 13.3877C14.2791 13.1496 15.2272 12.8143 16.136 12.3867C18.2162 11.375 19.3563 9.53093 19.1827 7.45215C19.1031 6.43335 18.6985 5.46891 18.0306 4.70561C16.2191 3.60955 14.1546 3.02126 12.0471 3.00057C9.93965 2.97987 7.86439 3.52753 6.03246 4.58782C4.20052 5.64811 2.67727 7.1832 1.61767 9.03693C0.558072 10.8907 -7.37158e-05 12.9969 1.24984e-05 15.1414ZM17.8092 6.66839C17.7694 6.55106 17.7229 6.4362 17.67 6.3244C17.7229 6.4362 17.7694 6.55106 17.8092 6.66839Z" fill="#95BCF7"/>
<path d="M19.493 17.1843C17.1131 18.3686 14.4955 19.0039 11.9548 19.6192L11.3754 19.7598C10.5807 19.9454 9.80666 20.2075 9.06439 20.5423C8.38905 20.8579 7.60026 21.4441 7.6867 22.4414C7.75424 23.2372 8.30126 23.7969 9.35614 24.1496C10.155 24.4172 10.9984 24.5333 11.8414 24.4918C12.826 24.448 13.8836 24.2159 15.083 23.7783C19.1621 22.2796 22.1525 19.6272 23.9759 15.8726C23.9907 15.6233 24.0002 15.3713 24.0002 15.118C23.9998 14.5768 23.9624 14.0363 23.8881 13.5C22.9196 14.9854 21.4798 16.1976 19.493 17.1843Z" fill="#0C4BC6"/>
<path d="M14.6631 5.857C13.874 5.58349 13.0408 5.46532 12.2082 5.50883C11.2368 5.55218 10.1921 5.79062 9.01402 6.23634C4.80988 7.82685 1.77852 10.7071 0 14.7985C0 14.8888 0 14.9792 0 15.0695C6.37699e-05 15.716 0.0504767 16.3616 0.150767 17C1.0994 15.3594 2.57639 14.0385 4.64977 12.9723C7.00201 11.7638 9.5864 11.1135 12.0961 10.4863L12.6698 10.3427C13.4544 10.1527 14.2186 9.88448 14.9513 9.54199C15.6184 9.21955 16.399 8.6221 16.3136 7.60195C16.2455 6.78909 15.7065 6.21737 14.6631 5.857Z" fill="#C2DBF9"/>
</svg>
